<?xml version="1.0" standalone="no"?>
<!DOCTYPE svg PUBLIC "-//W3C//DTD SVG 20010904//EN"
 "http://www.w3.org/TR/2001/REC-SVG-20010904/DTD/svg10.dtd">
<svg version="1.0" xmlns="http://www.w3.org/2000/svg"
 width="512.000000pt" height="512.000000pt" viewBox="0 0 512.000000 512.000000"
 preserveAspectRatio="xMidYMid meet">

<g transform="translate(0.000000,512.000000) scale(0.100000,-0.100000)"
fill="current" stroke="none">
<path d="M3083 4721 c-110 -28 -184 -120 -207 -257 l-7 -41 -121 -6 c-78 -5
-132 -13 -154 -23 -38 -18 -80 -80 -90 -132 l-6 -32 -406 0 c-390 0 -407 -1
-448 -21 -50 -24 -78 -64 -94 -132 -6 -29 -10 -218 -11 -499 0 -372 -2 -449
-13 -437 -7 8 -108 140 -224 294 -415 550 -408 543 -496 566 -140 38 -316
-108 -316 -261 0 -56 17 -97 78 -185 155 -225 469 -601 833 -1001 l147 -160
-9 -80 c-6 -43 -9 -210 -7 -370 l3 -292 -78 -116 c-42 -63 -115 -162 -161
-219 -94 -116 -108 -139 -100 -160 7 -20 91 -51 212 -78 l100 -22 -2 -216 c-1
-216 -1 -216 26 -266 58 -109 158 -168 333 -195 162 -26 2331 29 2480 62 123
27 207 110 244 243 34 122 65 1280 58 2170 -6 730 -19 1074 -43 1172 -20 79
-72 141 -146 174 -52 23 -61 24 -365 27 l-313 4 0 21 c-1 40 -37 105 -68 121
-17 9 -73 18 -135 22 l-106 7 -7 56 c-15 126 -63 200 -157 241 -53 24 -171 35
-224 21z m195 -77 c79 -32 116 -93 127 -209 4 -38 12 -76 17 -82 7 -9 46 -13
130 -13 190 0 187 4 180 -291 l-5 -217 -196 -7 c-216 -8 -962 2 -974 14 -4 4
-12 89 -17 190 -11 189 -8 224 28 279 28 43 62 52 197 52 70 0 134 4 144 10
13 6 20 26 25 66 7 61 36 136 64 167 56 63 184 81 280 41z m-788 -579 l0 -105
-267 6 c-301 8 -378 3 -393 -26 -6 -12 -15 -220 -21 -512 -6 -271 -14 -519
-17 -551 l-7 -58 -97 117 c-60 73 -94 122 -89 128 14 18 31 308 40 668 9 375
11 382 73 392 18 3 143 8 278 11 135 4 295 12 355 19 61 7 118 14 128 15 15 1
17 -10 17 -104z m1580 90 c146 -9 287 -20 313 -26 60 -14 111 -60 125 -114 34
-128 47 -1200 29 -2405 -12 -895 -13 -926 -33 -970 -25 -55 -80 -105 -131
-119 -21 -6 -112 -11 -203 -11 -91 0 -493 -7 -895 -15 -401 -8 -887 -16 -1080
-17 -338 -2 -352 -2 -416 20 -93 31 -146 72 -174 135 -20 45 -24 75 -30 231
l-7 179 29 -6 c15 -4 78 -17 138 -30 l110 -23 8 -129 c9 -163 14 -171 104
-182 105 -12 1574 -8 1828 6 268 14 439 29 470 41 29 11 31 27 45 285 31 593
41 2919 12 2947 -10 10 -73 13 -273 13 l-259 0 0 65 c0 36 -3 82 -6 103 -6 32
-4 37 12 37 11 0 138 -7 284 -15z m-3243 -231 c40 -20 103 -97 98 -122 -2 -9
-7 -38 -10 -64 l-6 -46 -53 5 c-48 5 -55 3 -70 -18 -9 -13 -16 -43 -16 -66 0
-40 -2 -43 -27 -43 -16 0 -44 -3 -64 -6 -35 -6 -38 -4 -77 50 -22 31 -43 72
-46 91 -10 51 10 111 52 157 65 72 148 95 219 62z m3411 -10 l33 -5 -4 -732
-3 -732 -27 -175 c-16 -96 -39 -226 -53 -290 -62 -288 -199 -607 -377 -877
-54 -82 -64 -92 -96 -97 -212 -34 -811 -53 -1169 -38 -371 16 -696 53 -932
108 -75 17 -321 94 -333 104 -4 4 19 38 51 77 88 105 149 194 201 292 25 48
60 112 77 142 55 94 154 391 154 463 1 49 13 50 97 7 87 -43 190 -81 223 -81
11 0 29 9 39 19 23 23 18 52 -34 197 -70 193 -116 286 -188 378 l-69 88 16
177 c15 162 36 668 36 873 l0 87 33 5 c17 3 154 7 303 11 l271 5 5 -52 c4 -39
12 -57 30 -73 24 -20 40 -22 238 -28 258 -8 746 -7 887 2 125 7 137 16 140 99
1 31 2 57 3 57 143 0 424 -7 448 -11z m-2963 -527 c132 -164 274 -344 314
-400 41 -56 129 -174 194 -261 104 -138 117 -160 102 -169 -14 -8 -16 -18 -10
-64 l7 -55 -60 7 c-88 10 -102 -11 -67 -97 6 -16 1 -18 -42 -18 -46 0 -52 3
-105 58 -103 105 -778 915 -912 1095 l-28 37 56 0 c79 0 94 10 102 70 l7 50
53 -6 c67 -8 79 1 89 69 l7 52 26 -35 c15 -19 135 -169 267 -333z m708 -1010
l36 -87 -35 -15 c-21 -9 -39 -26 -47 -44 l-13 -30 -74 32 c-41 18 -84 38 -95
45 -18 10 -16 11 18 12 35 0 37 2 37 31 0 17 -5 39 -10 50 -10 18 -8 18 50 12
71 -7 90 4 90 55 0 19 2 33 4 31 2 -2 20 -43 39 -92z m-305 -116 l49 -31 -48
-163 c-26 -89 -57 -187 -68 -217 l-20 -55 0 274 -1 274 20 -25 c11 -14 42 -40
68 -57z m371 -52 c14 -42 14 -59 -1 -54 -70 25 -69 24 -57 47 12 23 28 38 41
38 3 0 11 -14 17 -31z m2203 -1149 l-7 -305 -72 -6 c-39 -4 -368 -12 -730 -19
-741 -14 -1506 -11 -1523 6 -12 12 -37 220 -28 230 4 3 71 -3 150 -15 262 -37
401 -45 823 -45 526 -1 874 23 919 62 70 61 284 456 362 667 36 98 102 341
106 393 7 73 7 -702 0 -968z"/>
<path d="M3131 4504 c-32 -13 -41 -31 -41 -80 0 -52 36 -84 95 -84 58 0 95 32
95 83 0 71 -75 112 -149 81z m87 -72 c-2 -23 -8 -27 -33 -27 -24 0 -31 5 -33
24 -5 32 23 54 50 40 13 -7 18 -19 16 -37z"/>
<path d="M2774 4126 c-35 -16 -44 -32 -44 -82 0 -52 36 -84 95 -84 35 0 52 6
70 25 46 45 24 145 -32 145 -10 0 -27 2 -38 5 -11 3 -34 -1 -51 -9z m76 -40
c6 -8 10 -25 8 -38 -2 -18 -9 -23 -33 -23 -24 0 -31 5 -33 24 -3 15 3 30 14
38 23 17 29 16 44 -1z"/>
<path d="M3425 4115 c-49 -48 -20 -137 48 -150 37 -7 84 8 103 33 23 29 17 90
-11 117 -34 35 -106 35 -140 0z m103 -51 c4 -36 -18 -50 -49 -34 -36 20 -15
74 26 68 14 -2 21 -12 23 -34z"/>
<path d="M2780 3569 c-96 -3 -178 -7 -182 -8 -17 -3 -6 -30 15 -38 33 -12 715
-6 837 7 125 13 140 17 140 36 0 12 -48 14 -317 12 -175 -1 -397 -5 -493 -9z"/>
<path d="M3200 3404 c-424 -11 -836 -37 -855 -55 -5 -6 -5 -13 3 -21 8 -8 126
-8 484 1 260 7 601 16 758 20 244 5 285 8 285 21 0 11 -16 17 -55 21 -75 9
-467 17 -620 13z"/>
<path d="M2320 3024 c-14 -3 -44 -7 -67 -10 -39 -5 -43 -8 -53 -42 -5 -20 -10
-105 -10 -188 0 -149 0 -152 23 -158 57 -15 337 3 363 25 10 8 14 34 14 88 l0
77 49 37 c56 43 141 131 141 147 0 27 -69 -8 -154 -77 -16 -13 -31 -21 -35
-18 -3 4 -8 32 -11 63 l-5 57 -115 1 c-63 1 -126 0 -140 -2z m203 -106 c6 -56
4 -65 -14 -80 -30 -26 -40 -23 -84 22 -42 43 -53 48 -61 26 -7 -18 48 -100 81
-122 20 -13 31 -14 55 -5 l31 10 -3 -37 -3 -37 -135 -7 c-74 -4 -136 -5 -139
-3 -2 3 -6 70 -9 150 l-5 145 140 0 140 0 6 -62z"/>
<path d="M3190 2970 c-107 -13 -229 -64 -207 -86 3 -3 48 2 99 11 122 23 330
23 456 0 123 -23 247 -17 320 15 60 26 73 57 20 46 -81 -17 -239 -18 -325 -3
-111 20 -278 28 -363 17z"/>
<path d="M3153 2745 c-103 -23 -198 -73 -178 -94 8 -8 40 -3 110 15 81 21 133
28 270 33 140 5 170 9 170 21 0 8 -17 19 -40 26 -54 17 -255 16 -332 -1z"/>
<path d="M2310 2448 c-47 -5 -90 -14 -97 -20 -17 -14 -29 -60 -51 -201 -15
-95 -16 -121 -6 -135 11 -15 36 -17 191 -20 149 -3 182 -1 192 12 7 8 19 89
28 186 14 148 15 173 2 181 -17 11 -146 9 -259 -3z m206 -85 c-3 -21 -8 -69
-11 -108 -4 -38 -9 -82 -11 -97 l-6 -28 -139 0 c-104 0 -139 3 -139 13 0 29
21 233 25 245 3 9 42 12 146 12 l141 0 -6 -37z"/>
<path d="M3136 2399 c-27 -4 -76 -18 -108 -30 -44 -16 -58 -26 -58 -41 0 -16
4 -19 23 -14 12 4 67 14 121 23 80 12 112 13 170 4 180 -29 212 -31 326 -21
142 13 290 46 290 65 0 8 -3 16 -7 18 -5 3 -62 -1 -128 -9 -157 -17 -330 -17
-430 1 -88 16 -126 17 -199 4z"/>
<path d="M3197 2190 c-80 -10 -193 -43 -222 -64 -37 -27 -6 -36 75 -20 123 23
276 32 425 24 133 -7 171 -2 150 19 -35 35 -288 59 -428 41z"/>
<path d="M2240 1898 c-58 -6 -111 -15 -118 -21 -29 -23 -132 -257 -132 -298 0
-12 10 -23 26 -29 33 -13 299 -13 345 0 l36 10 48 162 c45 154 47 162 29 175
-20 15 -77 15 -234 1z m180 -50 c0 -2 -17 -57 -38 -123 l-38 -120 -142 -3
c-78 -1 -142 1 -142 6 0 8 60 189 75 225 6 15 23 17 146 17 76 0 139 -1 139
-2z"/>
<path d="M3045 1860 c-79 -12 -145 -38 -145 -56 0 -12 13 -14 78 -7 114 12
238 8 410 -12 125 -14 167 -15 228 -6 83 12 117 26 111 44 -2 8 -31 11 -93 9
-49 -2 -147 3 -219 12 -183 21 -300 26 -370 16z"/>
<path d="M3040 1640 c-93 -15 -145 -34 -148 -54 -4 -17 2 -18 69 -12 41 3 172
9 292 13 169 4 217 9 217 19 0 7 -17 18 -37 25 -48 14 -320 21 -393 9z"/>
<path d="M960 3559 c0 -24 315 -444 539 -719 156 -191 271 -297 271 -251 0 6
-53 77 -118 158 -65 81 -205 258 -311 393 -270 342 -343 429 -363 429 -10 1
-18 -4 -18 -10z"/>
<path d="M865 3470 c-10 -15 47 -94 237 -331 390 -487 568 -681 568 -619 0 31
-765 960 -791 960 -4 0 -11 -5 -14 -10z"/>
</g>
</svg>
